<mxfile host="app.diagrams.net" modified="2023-05-19T11:47:01.516Z" agent="Mozilla/5.0 (Windows NT 10.0; Win64; x64) AppleWebKit/537.36 (KHTML, like Gecko) Chrome/113.0.0.0 Safari/537.36" version="21.3.2" etag="GgTDCa_C9cP6jKe1O1y9" type="github">
  <diagram name="Halaman-1" id="GEUC0A8AY6yCl-mvufoo">
    <mxGraphModel>
      <root>
        <mxCell id="0" />
        <mxCell id="1" parent="0" />
      </root>
    </mxGraphModel>
  </diagram>
</mxfile>
